# xmcd
#
# Track frame offsets:
#	150
#	22210
#	36231
#	47925
#	58602
#	75444
#	91011
#	108793
#	122528
#	138242
#	155244
#	168443
#	184428
#	199459
#
# Disc length: 2882 seconds
#
# Revision: 1
# Processed by: cddbd v1.5.2PL0 Copyright (c) Steve Scherf et al.
# Submitted via: audiograbber 1.83.01
#
DISCID=c00b400e
DTITLE=Dave Edmunds - Rocker CD 1
DYEAR=1977
DGENRE=
TTITLE0=Sabre Dance
TTITLE1=Think Of Love
TTITLE2=River To Another Day
TTITLE3=Brand New Woman
TTITLE4=Farandole
TTITLE5=You Can't Catch Me
TTITLE6=In The Land Of The Few
TTITLE7=(The) Stumble
TTITLE8=Wang-Dang-Doodle
TTITLE9=I Believe To My Soul
TTITLE10=So Unkind
TTITLE11=On The Road Again
TTITLE12=Shake Your Hips
TTITLE13=Blues Helping
EXTD=
EXTT0=
EXTT1=
EXTT2=
EXTT3=
EXTT4=
EXTT5=
EXTT6=
EXTT7=
EXTT8=
EXTT9=
EXTT10=
EXTT11=
EXTT12=
EXTT13=
PLAYORDER=
